<?xml version="1.0" encoding="us-ascii" standalone="no"?><svg xmlns="http://www.w3.org/2000/svg" xmlns:xlink="http://www.w3.org/1999/xlink" contentStyleType="text/css" height="1271px" preserveAspectRatio="none" style="width:921px;height:1271px;background:#FFFFFF;" version="1.1" viewBox="0 0 921 1271" width="921px" zoomAndPan="magnify"><defs/><g><text fill="#000000" font-family="sans-serif" font-size="14" font-weight="bold" lengthAdjust="spacing" textLength="336" x="285" y="24.5332">Diagram 4 - History Management (US #8 &amp; US #9)</text><!--cluster MODEL--><g id="cluster_MODEL"><path d="M13.5,806.6094 L55.5,806.6094 A11.25,11.25 0 0 1 63,814.1094 L70,830.2188 L905.5,830.2188 A7.5,7.5 0 0 1 913,837.7188 L913,1255.1094 A7.5,7.5 0 0 1 905.5,1262.6094 L13.5,1262.6094 A7.5,7.5 0 0 1 6,1255.1094 L6,814.1094 A7.5,7.5 0 0 1 13.5,806.6094 " fill="#1D5D74" style="stroke:#000000;stroke-width:1.5;"/><line style="stroke:#000000;stroke-width:1.5;" x1="6" x2="70" y1="830.2188" y2="830.2188"/><text fill="#FFFFFF" font-family="sans-serif" font-size="14" font-weight="bold" lengthAdjust="spacing" textLength="51" x="10" y="823.1426">MODEL</text></g><!--cluster VIEW--><g id="cluster_VIEW"><path d="M195.5,523.6094 L221.5,523.6094 A11.25,11.25 0 0 1 229,531.1094 L236,547.2188 L606.5,547.2188 A7.5,7.5 0 0 1 614,554.7188 L614,775.1094 A7.5,7.5 0 0 1 606.5,782.6094 L195.5,782.6094 A7.5,7.5 0 0 1 188,775.1094 L188,531.1094 A7.5,7.5 0 0 1 195.5,523.6094 " fill="#88B4C3" style="stroke:#000000;stroke-width:1.5;"/><line style="stroke:#000000;stroke-width:1.5;" x1="188" x2="236" y1="547.2188" y2="547.2188"/><text fill="#FFFFFF" font-family="sans-serif" font-size="14" font-weight="bold" lengthAdjust="spacing" textLength="35" x="192" y="540.1426">VIEW</text></g><!--cluster TEMPLATE--><g id="cluster_TEMPLATE"><path d="M221.5,44.6094 L285.5,44.6094 A11.25,11.25 0 0 1 293,52.1094 L300,68.2188 L580.5,68.2188 A7.5,7.5 0 0 1 588,75.7188 L588,492.1094 A7.5,7.5 0 0 1 580.5,499.6094 L221.5,499.6094 A7.5,7.5 0 0 1 214,492.1094 L214,52.1094 A7.5,7.5 0 0 1 221.5,44.6094 " fill="#6C7E87" style="stroke:#000000;stroke-width:1.5;"/><line style="stroke:#000000;stroke-width:1.5;" x1="214" x2="300" y1="68.2188" y2="68.2188"/><text fill="#FFFFFF" font-family="sans-serif" font-size="14" font-weight="bold" lengthAdjust="spacing" textLength="73" x="218" y="61.1426">TEMPLATE</text></g><!--class DatabaseHelper--><g id="elem_DatabaseHelper"><rect codeLine="20" fill="#FFFFFF" height="119.0781" id="DatabaseHelper" rx="7.5" ry="7.5" style="stroke:#1D5D74;stroke-width:0.5;" width="244" x="122" y="1092.1094"/><ellipse cx="168.75" cy="1117.2344" fill="#ADD1B2" rx="11" ry="11" style="stroke:#181818;stroke-width:1.0;"/><path d="M171.5156,1113.1094 Q171.6719,1112.8906 171.8594,1112.7813 Q172.0469,1112.6719 172.2656,1112.6719 Q172.6406,1112.6719 172.875,1112.9375 Q173.1094,1113.1875 173.1094,1113.7969 L173.1094,1115.25 Q173.1094,1115.8594 172.875,1116.125 Q172.6406,1116.3906 172.2656,1116.3906 Q171.9219,1116.3906 171.7188,1116.1875 Q171.5156,1116 171.4063,1115.4844 Q171.3594,1115.125 171.1719,1114.9375 Q170.8438,1114.5625 170.2344,1114.3438 Q169.625,1114.125 169,1114.125 Q168.2344,1114.125 167.5938,1114.4531 Q166.9688,1114.7813 166.4688,1115.5313 Q165.9844,1116.2813 165.9844,1117.3125 L165.9844,1118.4063 Q165.9844,1119.6406 166.875,1120.4688 Q167.7656,1121.2813 169.3594,1121.2813 Q170.2969,1121.2813 170.9531,1121.0313 Q171.3438,1120.875 171.7656,1120.4375 Q172.0313,1120.1719 172.1719,1120.0938 Q172.3281,1120.0156 172.5313,1120.0156 Q172.8594,1120.0156 173.1094,1120.2813 Q173.375,1120.5313 173.375,1120.875 Q173.375,1121.2188 173.0313,1121.625 Q172.5313,1122.2031 171.7344,1122.5313 Q170.6563,1122.9844 169.3594,1122.9844 Q167.8438,1122.9844 166.6406,1122.3594 Q165.6563,1121.8594 164.9688,1120.7969 Q164.2813,1119.7188 164.2813,1118.4375 L164.2813,1117.2813 Q164.2813,1115.9531 164.8906,1114.8125 Q165.5156,1113.6563 166.6094,1113.0469 Q167.7031,1112.4219 168.9375,1112.4219 Q169.6719,1112.4219 170.3125,1112.5938 Q170.9688,1112.75 171.5156,1113.1094 Z " fill="#000000"/><text fill="#000000" font-family="sans-serif" font-size="12" font-style="italic" lengthAdjust="spacing" textLength="44" x="238.25" y="1109.5664">&#171;Utility&#187;</text><text fill="#1D5D74" font-family="sans-serif" font-size="20" lengthAdjust="spacing" textLength="142" x="189.25" y="1132.9648">DatabaseHelper</text><line style="stroke:#1D5D74;stroke-width:0.5;" x1="123" x2="365" y1="1142.3594" y2="1142.3594"/><rect fill="none" height="6" style="stroke:#C82930;stroke-width:1.0;" width="6" x="130" y="1153.6641"/><text fill="#000000" font-family="sans-serif" font-size="14" lengthAdjust="spacing" textLength="114" x="142" y="1160.8926">DB_NAME : String</text><rect fill="none" height="6" style="stroke:#C82930;stroke-width:1.0;" width="6" x="130" y="1171.2734"/><text fill="#000000" font-family="sans-serif" font-size="14" lengthAdjust="spacing" textLength="114" x="142" y="1178.502">DB_VERSION : int</text><line style="stroke:#1D5D74;stroke-width:1.0;" x1="123" x2="365" y1="1185.5781" y2="1185.5781"/><ellipse cx="133" cy="1199.8828" fill="#84BE84" rx="3" ry="3" style="stroke:#038048;stroke-width:1.0;"/><text fill="#000000" font-family="sans-serif" font-size="14" lengthAdjust="spacing" textLength="218" x="142" y="1204.1113">getConnection() : SQLiteDatabase</text></g><!--class TransactionDAO--><g id="elem_TransactionDAO"><rect codeLine="27" fill="#FFFFFF" height="154.2969" id="TransactionDAO" rx="7.5" ry="7.5" style="stroke:#1D5D74;stroke-width:0.5;" width="566" x="331" y="842.6094"/><ellipse cx="537.25" cy="867.7344" fill="#ADD1B2" rx="11" ry="11" style="stroke:#181818;stroke-width:1.0;"/><path d="M540.0156,863.6094 Q540.1719,863.3906 540.3594,863.2813 Q540.5469,863.1719 540.7656,863.1719 Q541.1406,863.1719 541.375,863.4375 Q541.6094,863.6875 541.6094,864.2969 L541.6094,865.75 Q541.6094,866.3594 541.375,866.625 Q541.1406,866.8906 540.7656,866.8906 Q540.4219,866.8906 540.2188,866.6875 Q540.0156,866.5 539.9063,865.9844 Q539.8594,865.625 539.6719,865.4375 Q539.3438,865.0625 538.7344,864.8438 Q538.125,864.625 537.5,864.625 Q536.7344,864.625 536.0938,864.9531 Q535.4688,865.2813 534.9688,866.0313 Q534.4844,866.7813 534.4844,867.8125 L534.4844,868.9063 Q534.4844,870.1406 535.375,870.9688 Q536.2656,871.7813 537.8594,871.7813 Q538.7969,871.7813 539.4531,871.5313 Q539.8438,871.375 540.2656,870.9375 Q540.5313,870.6719 540.6719,870.5938 Q540.8281,870.5156 541.0313,870.5156 Q541.3594,870.5156 541.6094,870.7813 Q541.875,871.0313 541.875,871.375 Q541.875,871.7188 541.5313,872.125 Q541.0313,872.7031 540.2344,873.0313 Q539.1563,873.4844 537.8594,873.4844 Q536.3438,873.4844 535.1406,872.8594 Q534.1563,872.3594 533.4688,871.2969 Q532.7813,870.2188 532.7813,868.9375 L532.7813,867.7813 Q532.7813,866.4531 533.3906,865.3125 Q534.0156,864.1563 535.1094,863.5469 Q536.2031,862.9219 537.4375,862.9219 Q538.1719,862.9219 538.8125,863.0938 Q539.4688,863.25 540.0156,863.6094 Z " fill="#000000"/><text fill="#000000" font-family="sans-serif" font-size="12" font-style="italic" lengthAdjust="spacing" textLength="40" x="610.25" y="860.0664">&#171;DAO&#187;</text><text fill="#1D5D74" font-family="sans-serif" font-size="20" lengthAdjust="spacing" textLength="145" x="557.75" y="883.4648">TransactionDAO</text><line style="stroke:#1D5D74;stroke-width:0.5;" x1="332" x2="896" y1="892.8594" y2="892.8594"/><rect fill="none" height="6" style="stroke:#C82930;stroke-width:1.0;" width="6" x="339" y="904.1641"/><text fill="#000000" font-family="sans-serif" font-size="14" lengthAdjust="spacing" textLength="130" x="351" y="911.3926">db : DatabaseHelper</text><line style="stroke:#1D5D74;stroke-width:1.0;" x1="332" x2="896" y1="918.4688" y2="918.4688"/><ellipse cx="342" cy="932.7734" fill="#84BE84" rx="3" ry="3" style="stroke:#038048;stroke-width:1.0;"/><text fill="#000000" font-family="sans-serif" font-size="14" lengthAdjust="spacing" textLength="258" x="351" y="937.002">updateTransaction(t : Transaction) : void</text><ellipse cx="342" cy="950.3828" fill="#84BE84" rx="3" ry="3" style="stroke:#038048;stroke-width:1.0;"/><text fill="#000000" font-family="sans-serif" font-size="14" lengthAdjust="spacing" textLength="200" x="351" y="954.6113">deleteTransaction(id : int) : void</text><ellipse cx="342" cy="967.9922" fill="#84BE84" rx="3" ry="3" style="stroke:#038048;stroke-width:1.0;"/><text fill="#000000" font-family="sans-serif" font-size="14" lengthAdjust="spacing" textLength="540" x="351" y="972.2207">filterByCriteria(category : String, startDate : Date, endDate : Date) : List~Transaction~</text><ellipse cx="342" cy="985.6016" fill="#84BE84" rx="3" ry="3" style="stroke:#038048;stroke-width:1.0;"/><text fill="#000000" font-family="sans-serif" font-size="14" lengthAdjust="spacing" textLength="252" x="351" y="989.8301">getAllTransactions() : List~Transaction~</text></g><!--class CycleDAO--><g id="elem_CycleDAO"><rect codeLine="36" fill="#FFFFFF" height="101.4688" id="CycleDAO" rx="7.5" ry="7.5" style="stroke:#1D5D74;stroke-width:0.5;" width="273" x="22.5" y="869.1094"/><ellipse cx="108.75" cy="894.2344" fill="#ADD1B2" rx="11" ry="11" style="stroke:#181818;stroke-width:1.0;"/><path d="M111.5156,890.1094 Q111.6719,889.8906 111.8594,889.7813 Q112.0469,889.6719 112.2656,889.6719 Q112.6406,889.6719 112.875,889.9375 Q113.1094,890.1875 113.1094,890.7969 L113.1094,892.25 Q113.1094,892.8594 112.875,893.125 Q112.6406,893.3906 112.2656,893.3906 Q111.9219,893.3906 111.7188,893.1875 Q111.5156,893 111.4063,892.4844 Q111.3594,892.125 111.1719,891.9375 Q110.8438,891.5625 110.2344,891.3438 Q109.625,891.125 109,891.125 Q108.2344,891.125 107.5938,891.4531 Q106.9688,891.7813 106.4688,892.5313 Q105.9844,893.2813 105.9844,894.3125 L105.9844,895.4063 Q105.9844,896.6406 106.875,897.4688 Q107.7656,898.2813 109.3594,898.2813 Q110.2969,898.2813 110.9531,898.0313 Q111.3438,897.875 111.7656,897.4375 Q112.0313,897.1719 112.1719,897.0938 Q112.3281,897.0156 112.5313,897.0156 Q112.8594,897.0156 113.1094,897.2813 Q113.375,897.5313 113.375,897.875 Q113.375,898.2188 113.0313,898.625 Q112.5313,899.2031 111.7344,899.5313 Q110.6563,899.9844 109.3594,899.9844 Q107.8438,899.9844 106.6406,899.3594 Q105.6563,898.8594 104.9688,897.7969 Q104.2813,896.7188 104.2813,895.4375 L104.2813,894.2813 Q104.2813,892.9531 104.8906,891.8125 Q105.5156,890.6563 106.6094,890.0469 Q107.7031,889.4219 108.9375,889.4219 Q109.6719,889.4219 110.3125,889.5938 Q110.9688,889.75 111.5156,890.1094 Z " fill="#000000"/><text fill="#000000" font-family="sans-serif" font-size="12" font-style="italic" lengthAdjust="spacing" textLength="40" x="155.25" y="886.5664">&#171;DAO&#187;</text><text fill="#1D5D74" font-family="sans-serif" font-size="20" lengthAdjust="spacing" textLength="92" x="129.25" y="909.9648">CycleDAO</text><line style="stroke:#1D5D74;stroke-width:0.5;" x1="23.5" x2="294.5" y1="919.3594" y2="919.3594"/><rect fill="none" height="6" style="stroke:#C82930;stroke-width:1.0;" width="6" x="30.5" y="930.6641"/><text fill="#000000" font-family="sans-serif" font-size="14" lengthAdjust="spacing" textLength="130" x="42.5" y="937.8926">db : DatabaseHelper</text><line style="stroke:#1D5D74;stroke-width:1.0;" x1="23.5" x2="294.5" y1="944.9688" y2="944.9688"/><ellipse cx="33.5" cy="959.2734" fill="#84BE84" rx="3" ry="3" style="stroke:#038048;stroke-width:1.0;"/><text fill="#000000" font-family="sans-serif" font-size="14" lengthAdjust="spacing" textLength="247" x="42.5" y="963.502">recalculateDailyLimit(cycleId : int) : void</text></g><!--class Transaction--><g id="elem_Transaction"><rect codeLine="42" fill="#FFFFFF" height="189.5156" id="Transaction" rx="7.5" ry="7.5" style="stroke:#1D5D74;stroke-width:0.5;" width="253" x="487.5" y="1056.6094"/><ellipse cx="558.75" cy="1081.7344" fill="#ADD1B2" rx="11" ry="11" style="stroke:#181818;stroke-width:1.0;"/><path d="M561.5156,1077.6094 Q561.6719,1077.3906 561.8594,1077.2813 Q562.0469,1077.1719 562.2656,1077.1719 Q562.6406,1077.1719 562.875,1077.4375 Q563.1094,1077.6875 563.1094,1078.2969 L563.1094,1079.75 Q563.1094,1080.3594 562.875,1080.625 Q562.6406,1080.8906 562.2656,1080.8906 Q561.9219,1080.8906 561.7188,1080.6875 Q561.5156,1080.5 561.4063,1079.9844 Q561.3594,1079.625 561.1719,1079.4375 Q560.8438,1079.0625 560.2344,1078.8438 Q559.625,1078.625 559,1078.625 Q558.2344,1078.625 557.5938,1078.9531 Q556.9688,1079.2813 556.4688,1080.0313 Q555.9844,1080.7813 555.9844,1081.8125 L555.9844,1082.9063 Q555.9844,1084.1406 556.875,1084.9688 Q557.7656,1085.7813 559.3594,1085.7813 Q560.2969,1085.7813 560.9531,1085.5313 Q561.3438,1085.375 561.7656,1084.9375 Q562.0313,1084.6719 562.1719,1084.5938 Q562.3281,1084.5156 562.5313,1084.5156 Q562.8594,1084.5156 563.1094,1084.7813 Q563.375,1085.0313 563.375,1085.375 Q563.375,1085.7188 563.0313,1086.125 Q562.5313,1086.7031 561.7344,1087.0313 Q560.6563,1087.4844 559.3594,1087.4844 Q557.8438,1087.4844 556.6406,1086.8594 Q555.6563,1086.3594 554.9688,1085.2969 Q554.2813,1084.2188 554.2813,1082.9375 L554.2813,1081.7813 Q554.2813,1080.4531 554.8906,1079.3125 Q555.5156,1078.1563 556.6094,1077.5469 Q557.7031,1076.9219 558.9375,1076.9219 Q559.6719,1076.9219 560.3125,1077.0938 Q560.9688,1077.25 561.5156,1077.6094 Z " fill="#000000"/><text fill="#000000" font-family="sans-serif" font-size="12" font-style="italic" lengthAdjust="spacing" textLength="44" x="608.25" y="1074.0664">&#171;Entity&#187;</text><text fill="#1D5D74" font-family="sans-serif" font-size="20" lengthAdjust="spacing" textLength="102" x="579.25" y="1097.4648">Transaction</text><line style="stroke:#1D5D74;stroke-width:0.5;" x1="488.5" x2="739.5" y1="1106.8594" y2="1106.8594"/><rect fill="none" height="6" style="stroke:#C82930;stroke-width:1.0;" width="6" x="495.5" y="1118.1641"/><text fill="#000000" font-family="sans-serif" font-size="14" lengthAdjust="spacing" textLength="38" x="507.5" y="1125.3926">id : int</text><rect fill="none" height="6" style="stroke:#C82930;stroke-width:1.0;" width="6" x="495.5" y="1135.7734"/><text fill="#000000" font-family="sans-serif" font-size="14" lengthAdjust="spacing" textLength="86" x="507.5" y="1143.002">amount : float</text><rect fill="none" height="6" style="stroke:#C82930;stroke-width:1.0;" width="6" x="495.5" y="1153.3828"/><text fill="#000000" font-family="sans-serif" font-size="14" lengthAdjust="spacing" textLength="140" x="507.5" y="1160.6113">categoryName : String</text><rect fill="none" height="6" style="stroke:#C82930;stroke-width:1.0;" width="6" x="495.5" y="1170.9922"/><text fill="#000000" font-family="sans-serif" font-size="14" lengthAdjust="spacing" textLength="137" x="507.5" y="1178.2207">timestamp : DateTime</text><rect fill="none" height="6" style="stroke:#C82930;stroke-width:1.0;" width="6" x="495.5" y="1188.6016"/><text fill="#000000" font-family="sans-serif" font-size="14" lengthAdjust="spacing" textLength="70" x="507.5" y="1195.8301">cycleId : int</text><line style="stroke:#1D5D74;stroke-width:1.0;" x1="488.5" x2="739.5" y1="1202.9063" y2="1202.9063"/><ellipse cx="498.5" cy="1217.2109" fill="#84BE84" rx="3" ry="3" style="stroke:#038048;stroke-width:1.0;"/><text fill="#000000" font-family="sans-serif" font-size="14" lengthAdjust="spacing" textLength="227" x="507.5" y="1221.4395">setAmount(newAmount : float) : void</text><ellipse cx="498.5" cy="1234.8203" fill="#84BE84" rx="3" ry="3" style="stroke:#038048;stroke-width:1.0;"/><text fill="#000000" font-family="sans-serif" font-size="14" lengthAdjust="spacing" textLength="221" x="507.5" y="1239.0488">setCategory(newCat : String) : void</text></g><!--class HistoryView--><g id="elem_HistoryView"><rect codeLine="60" fill="#FFFFFF" height="207.125" id="HistoryView" rx="7.5" ry="7.5" style="stroke:#1D5D74;stroke-width:0.5;" width="393" x="204.5" y="559.6094"/><ellipse cx="344.75" cy="584.7344" fill="#ADD1B2" rx="11" ry="11" style="stroke:#181818;stroke-width:1.0;"/><path d="M347.5156,580.6094 Q347.6719,580.3906 347.8594,580.2813 Q348.0469,580.1719 348.2656,580.1719 Q348.6406,580.1719 348.875,580.4375 Q349.1094,580.6875 349.1094,581.2969 L349.1094,582.75 Q349.1094,583.3594 348.875,583.625 Q348.6406,583.8906 348.2656,583.8906 Q347.9219,583.8906 347.7188,583.6875 Q347.5156,583.5 347.4063,582.9844 Q347.3594,582.625 347.1719,582.4375 Q346.8438,582.0625 346.2344,581.8438 Q345.625,581.625 345,581.625 Q344.2344,581.625 343.5938,581.9531 Q342.9688,582.2813 342.4688,583.0313 Q341.9844,583.7813 341.9844,584.8125 L341.9844,585.9063 Q341.9844,587.1406 342.875,587.9688 Q343.7656,588.7813 345.3594,588.7813 Q346.2969,588.7813 346.9531,588.5313 Q347.3438,588.375 347.7656,587.9375 Q348.0313,587.6719 348.1719,587.5938 Q348.3281,587.5156 348.5313,587.5156 Q348.8594,587.5156 349.1094,587.7813 Q349.375,588.0313 349.375,588.375 Q349.375,588.7188 349.0313,589.125 Q348.5313,589.7031 347.7344,590.0313 Q346.6563,590.4844 345.3594,590.4844 Q343.8438,590.4844 342.6406,589.8594 Q341.6563,589.3594 340.9688,588.2969 Q340.2813,587.2188 340.2813,585.9375 L340.2813,584.7813 Q340.2813,583.4531 340.8906,582.3125 Q341.5156,581.1563 342.6094,580.5469 Q343.7031,579.9219 344.9375,579.9219 Q345.6719,579.9219 346.3125,580.0938 Q346.9688,580.25 347.5156,580.6094 Z " fill="#000000"/><text fill="#000000" font-family="sans-serif" font-size="12" font-style="italic" lengthAdjust="spacing" textLength="40" x="397.25" y="577.0664">&#171;View&#187;</text><text fill="#1D5D74" font-family="sans-serif" font-size="20" lengthAdjust="spacing" textLength="104" x="365.25" y="600.4648">HistoryView</text><line style="stroke:#1D5D74;stroke-width:0.5;" x1="205.5" x2="596.5" y1="609.8594" y2="609.8594"/><rect fill="none" height="6" style="stroke:#C82930;stroke-width:1.0;" width="6" x="212.5" y="621.1641"/><text fill="#000000" font-family="sans-serif" font-size="14" lengthAdjust="spacing" textLength="168" x="224.5" y="628.3926">template : HistoryTemplate</text><rect fill="none" height="6" style="stroke:#C82930;stroke-width:1.0;" width="6" x="212.5" y="638.7734"/><text fill="#000000" font-family="sans-serif" font-size="14" lengthAdjust="spacing" textLength="217" x="224.5" y="646.002">transactionDAO : TransactionDAO</text><rect fill="none" height="6" style="stroke:#C82930;stroke-width:1.0;" width="6" x="212.5" y="656.3828"/><text fill="#000000" font-family="sans-serif" font-size="14" lengthAdjust="spacing" textLength="139" x="224.5" y="663.6113">cycleDAO : CycleDAO</text><line style="stroke:#1D5D74;stroke-width:1.0;" x1="205.5" x2="596.5" y1="670.6875" y2="670.6875"/><ellipse cx="215.5" cy="684.9922" fill="#84BE84" rx="3" ry="3" style="stroke:#038048;stroke-width:1.0;"/><text fill="#000000" font-family="sans-serif" font-size="14" lengthAdjust="spacing" textLength="118" x="224.5" y="689.2207">loadHistory() : void</text><ellipse cx="215.5" cy="702.6016" fill="#84BE84" rx="3" ry="3" style="stroke:#038048;stroke-width:1.0;"/><text fill="#000000" font-family="sans-serif" font-size="14" lengthAdjust="spacing" textLength="271" x="224.5" y="706.8301">onEditTransaction(transactionId : int) : void</text><ellipse cx="215.5" cy="720.2109" fill="#84BE84" rx="3" ry="3" style="stroke:#038048;stroke-width:1.0;"/><text fill="#000000" font-family="sans-serif" font-size="14" lengthAdjust="spacing" textLength="288" x="224.5" y="724.4395">onDeleteTransaction(transactionId : int) : void</text><ellipse cx="215.5" cy="737.8203" fill="#84BE84" rx="3" ry="3" style="stroke:#038048;stroke-width:1.0;"/><text fill="#000000" font-family="sans-serif" font-size="14" lengthAdjust="spacing" textLength="367" x="224.5" y="742.0488">onApplyFilter(category : String, dateRange : Range) : void</text><ellipse cx="215.5" cy="755.4297" fill="#84BE84" rx="3" ry="3" style="stroke:#038048;stroke-width:1.0;"/><text fill="#000000" font-family="sans-serif" font-size="14" lengthAdjust="spacing" textLength="189" x="224.5" y="759.6582">validatePIN(pin : int) : boolean</text></g><!--class ITemplate--><g id="elem_ITemplate"><rect codeLine="75" fill="#FFFFFF" height="101.4688" id="ITemplate" rx="7.5" ry="7.5" style="stroke:#1D5D74;stroke-width:0.5;" width="213" x="294.5" y="80.6094"/><ellipse cx="352.75" cy="105.7344" fill="#B4A7E5" rx="11" ry="11" style="stroke:#181818;stroke-width:1.0;"/><path d="M353.7031,102.375 L353.7031,109.0313 L355.4219,109.0313 Q356.0313,109.0313 356.2969,109.2656 Q356.5625,109.5 356.5625,109.8906 Q356.5625,110.2656 356.2969,110.5 Q356.0313,110.7344 355.4219,110.7344 L350.2813,110.7344 Q349.6719,110.7344 349.4063,110.5 Q349.1406,110.2656 349.1406,109.875 Q349.1406,109.5 349.4063,109.2656 Q349.6719,109.0313 350.2813,109.0313 L352,109.0313 L352,102.375 L350.2813,102.375 Q349.6719,102.375 349.4063,102.1406 Q349.1406,101.9063 349.1406,101.5156 Q349.1406,101.1406 349.4063,100.9063 Q349.6719,100.6719 350.2813,100.6719 L355.4219,100.6719 Q356.0313,100.6719 356.2969,100.9063 Q356.5625,101.1406 356.5625,101.5156 Q356.5625,101.9063 356.2969,102.1406 Q356.0313,102.375 355.4219,102.375 L353.7031,102.375 Z " fill="#000000"/><text fill="#000000" font-family="sans-serif" font-size="12" font-style="italic" lengthAdjust="spacing" textLength="61" x="386.75" y="98.0664">&#171;interface&#187;</text><text fill="#1D5D74" font-family="sans-serif" font-size="20" font-style="italic" lengthAdjust="spacing" textLength="88" x="373.25" y="121.4648">ITemplate</text><line style="stroke:#1D5D74;stroke-width:0.5;" x1="295.5" x2="506.5" y1="130.8594" y2="130.8594"/><line style="stroke:#1D5D74;stroke-width:0.5;" x1="295.5" x2="506.5" y1="138.8594" y2="138.8594"/><ellipse cx="305.5" cy="153.1641" fill="#84BE84" rx="3" ry="3" style="stroke:#038048;stroke-width:1.0;"/><text fill="#000000" font-family="sans-serif" font-size="14" lengthAdjust="spacing" textLength="187" x="314.5" y="157.3926">showError(msg : String) : void</text><ellipse cx="305.5" cy="170.7734" fill="#84BE84" rx="3" ry="3" style="stroke:#038048;stroke-width:1.0;"/><text fill="#000000" font-family="sans-serif" font-size="14" lengthAdjust="spacing" textLength="131" x="314.5" y="175.002">showLoading() : void</text></g><!--class HistoryTemplate--><g id="elem_HistoryTemplate"><rect codeLine="80" fill="#FFFFFF" height="242.3438" id="HistoryTemplate" rx="7.5" ry="7.5" style="stroke:#1D5D74;stroke-width:0.5;" width="342" x="230" y="241.6094"/><ellipse cx="325.25" cy="266.7344" fill="#ADD1B2" rx="11" ry="11" style="stroke:#181818;stroke-width:1.0;"/><path d="M328.0156,262.6094 Q328.1719,262.3906 328.3594,262.2813 Q328.5469,262.1719 328.7656,262.1719 Q329.1406,262.1719 329.375,262.4375 Q329.6094,262.6875 329.6094,263.2969 L329.6094,264.75 Q329.6094,265.3594 329.375,265.625 Q329.1406,265.8906 328.7656,265.8906 Q328.4219,265.8906 328.2188,265.6875 Q328.0156,265.5 327.9063,264.9844 Q327.8594,264.625 327.6719,264.4375 Q327.3438,264.0625 326.7344,263.8438 Q326.125,263.625 325.5,263.625 Q324.7344,263.625 324.0938,263.9531 Q323.4688,264.2813 322.9688,265.0313 Q322.4844,265.7813 322.4844,266.8125 L322.4844,267.9063 Q322.4844,269.1406 323.375,269.9688 Q324.2656,270.7813 325.8594,270.7813 Q326.7969,270.7813 327.4531,270.5313 Q327.8438,270.375 328.2656,269.9375 Q328.5313,269.6719 328.6719,269.5938 Q328.8281,269.5156 329.0313,269.5156 Q329.3594,269.5156 329.6094,269.7813 Q329.875,270.0313 329.875,270.375 Q329.875,270.7188 329.5313,271.125 Q329.0313,271.7031 328.2344,272.0313 Q327.1563,272.4844 325.8594,272.4844 Q324.3438,272.4844 323.1406,271.8594 Q322.1563,271.3594 321.4688,270.2969 Q320.7813,269.2188 320.7813,267.9375 L320.7813,266.7813 Q320.7813,265.4531 321.3906,264.3125 Q322.0156,263.1563 323.1094,262.5469 Q324.2031,261.9219 325.4375,261.9219 Q326.1719,261.9219 326.8125,262.0938 Q327.4688,262.25 328.0156,262.6094 Z " fill="#000000"/><text fill="#000000" font-family="sans-serif" font-size="12" font-style="italic" lengthAdjust="spacing" textLength="66" x="384.25" y="259.0664">&#171;Template&#187;</text><text fill="#1D5D74" font-family="sans-serif" font-size="20" lengthAdjust="spacing" textLength="143" x="345.75" y="282.4648">HistoryTemplate</text><line style="stroke:#1D5D74;stroke-width:0.5;" x1="231" x2="571" y1="291.8594" y2="291.8594"/><rect fill="none" height="6" style="stroke:#C82930;stroke-width:1.0;" width="6" x="238" y="303.1641"/><text fill="#000000" font-family="sans-serif" font-size="14" lengthAdjust="spacing" textLength="188" x="250" y="310.3926">transactionList : RecyclerView</text><rect fill="none" height="6" style="stroke:#C82930;stroke-width:1.0;" width="6" x="238" y="320.7734"/><text fill="#000000" font-family="sans-serif" font-size="14" lengthAdjust="spacing" textLength="144" x="250" y="328.002">filterIcon : ImageButton</text><rect fill="none" height="6" style="stroke:#C82930;stroke-width:1.0;" width="6" x="238" y="338.3828"/><text fill="#000000" font-family="sans-serif" font-size="14" lengthAdjust="spacing" textLength="180" x="250" y="345.6113">categoryDropdown : Spinner</text><rect fill="none" height="6" style="stroke:#C82930;stroke-width:1.0;" width="6" x="238" y="355.9922"/><text fill="#000000" font-family="sans-serif" font-size="14" lengthAdjust="spacing" textLength="108" x="250" y="363.2207">datePicker : View</text><rect fill="none" height="6" style="stroke:#C82930;stroke-width:1.0;" width="6" x="238" y="373.6016"/><text fill="#000000" font-family="sans-serif" font-size="14" lengthAdjust="spacing" textLength="174" x="250" y="380.8301">emptyStateLabel : TextView</text><line style="stroke:#1D5D74;stroke-width:1.0;" x1="231" x2="571" y1="387.9063" y2="387.9063"/><ellipse cx="241" cy="402.2109" fill="#84BE84" rx="3" ry="3" style="stroke:#038048;stroke-width:1.0;"/><text fill="#000000" font-family="sans-serif" font-size="14" lengthAdjust="spacing" textLength="316" x="250" y="406.4395">displayTransactions(list : List~Transaction~) : void</text><ellipse cx="241" cy="419.8203" fill="#84BE84" rx="3" ry="3" style="stroke:#038048;stroke-width:1.0;"/><text fill="#000000" font-family="sans-serif" font-size="14" lengthAdjust="spacing" textLength="228" x="250" y="424.0488">showEditForm(t : Transaction) : void</text><ellipse cx="241" cy="437.4297" fill="#84BE84" rx="3" ry="3" style="stroke:#038048;stroke-width:1.0;"/><text fill="#000000" font-family="sans-serif" font-size="14" lengthAdjust="spacing" textLength="201" x="250" y="441.6582">showDeleteConfirmation() : void</text><ellipse cx="241" cy="455.0391" fill="#84BE84" rx="3" ry="3" style="stroke:#038048;stroke-width:1.0;"/><text fill="#000000" font-family="sans-serif" font-size="14" lengthAdjust="spacing" textLength="201" x="250" y="459.2676">showNoResultsMessage() : void</text><ellipse cx="241" cy="472.6484" fill="#84BE84" rx="3" ry="3" style="stroke:#038048;stroke-width:1.0;"/><text fill="#000000" font-family="sans-serif" font-size="14" lengthAdjust="spacing" textLength="180" x="250" y="476.877">notifyUpdateSuccess() : void</text></g><!--link TransactionDAO to DatabaseHelper--><g id="link_TransactionDAO_DatabaseHelper"><path codeLine="53" d="M348.5,996.8594 C348.5,1027.8394 348.5,1056.9794 348.5,1085.9394 " fill="none" id="TransactionDAO-to-DatabaseHelper" style="stroke:#D66D55;stroke-width:3.0;"/><polygon fill="#D66D55" points="348.5,1091.9394,352.5,1082.9394,348.5,1086.9394,344.5,1082.9394,348.5,1091.9394" style="stroke:#D66D55;stroke-width:3.0;"/><text fill="#000000" font-family="sans-serif" font-size="13" lengthAdjust="spacing" textLength="28" x="319.5" y="1040.8945">uses</text><text fill="#000000" font-family="sans-serif" font-size="13" lengthAdjust="spacing" textLength="7" x="315.8609" y="1018.4825">1</text><text fill="#000000" font-family="sans-serif" font-size="13" lengthAdjust="spacing" textLength="7" x="353.8094" y="1081.2039">1</text></g><!--link CycleDAO to DatabaseHelper--><g id="link_CycleDAO_DatabaseHelper"><path codeLine="54" d="M208.75,970.2394 C208.75,1006.0994 208.75,1048.3494 208.75,1086.0594 " fill="none" id="CycleDAO-to-DatabaseHelper" style="stroke:#D66D55;stroke-width:3.0;"/><polygon fill="#D66D55" points="208.75,1092.0594,212.75,1083.0594,208.75,1087.0594,204.75,1083.0594,208.75,1092.0594" style="stroke:#D66D55;stroke-width:3.0;"/><text fill="#000000" font-family="sans-serif" font-size="13" lengthAdjust="spacing" textLength="28" x="179.75" y="1027.6445">uses</text><text fill="#000000" font-family="sans-serif" font-size="13" lengthAdjust="spacing" textLength="7" x="208.2539" y="991.9711">1</text><text fill="#000000" font-family="sans-serif" font-size="13" lengthAdjust="spacing" textLength="7" x="197.0273" y="1081.3385">1</text></g><!--link TransactionDAO to Transaction--><g id="link_TransactionDAO_Transaction"><path codeLine="55" d="M614,996.8594 C614,1015.9794 614,1030.6694 614,1050.5294 " fill="none" id="TransactionDAO-to-Transaction" style="stroke:#D66D55;stroke-width:3.0;stroke-dasharray:7.0,7.0;"/><polygon fill="#D66D55" points="614,1056.5294,618,1047.5294,614,1051.5294,610,1047.5294,614,1056.5294" style="stroke:#D66D55;stroke-width:3.0;"/><text fill="#000000" font-family="sans-serif" font-size="13" lengthAdjust="spacing" textLength="53" x="615" y="1023.1945">manages</text><text fill="#000000" font-family="sans-serif" font-size="13" lengthAdjust="spacing" textLength="7" x="606.6664" y="1018.4825">1</text><text fill="#000000" font-family="sans-serif" font-size="13" lengthAdjust="spacing" textLength="5" x="608.8008" y="1045.8436">*</text></g><!--reverse link ITemplate to HistoryTemplate--><g id="link_ITemplate_HistoryTemplate"><path codeLine="94" d="M401,199.6294 C401,217.4494 401,220.3494 401,241.4794 " fill="none" id="ITemplate-backto-HistoryTemplate" style="stroke:#D66D55;stroke-width:3.0;stroke-dasharray:7.0,7.0;"/><polygon fill="none" points="401,181.6294,395,199.6294,407,199.6294,401,181.6294" style="stroke:#D66D55;stroke-width:3.0;"/><text fill="#000000" font-family="sans-serif" font-size="13" lengthAdjust="spacing" textLength="59" x="341" y="208.0445">&#171;realizes&#187;</text></g><!--link HistoryTemplate to HistoryView--><g id="link_HistoryTemplate_HistoryView"><path codeLine="98" d="M458,483.9694 C458,508.8894 458,528.9194 458,553.1594 " fill="none" id="HistoryTemplate-to-HistoryView" style="stroke:#D66D55;stroke-width:3.0;stroke-dasharray:7.0,7.0;"/><polygon fill="#D66D55" points="458,559.1594,462,550.1594,458,554.1594,454,550.1594,458,559.1594" style="stroke:#D66D55;stroke-width:3.0;"/><text fill="#000000" font-family="sans-serif" font-size="13" lengthAdjust="spacing" textLength="201" x="459" y="518.0545">"triggers interactions" [cite: 14, 46]</text><text fill="#000000" font-family="sans-serif" font-size="13" lengthAdjust="spacing" textLength="7" x="454.2602" y="505.3476">1</text><text fill="#000000" font-family="sans-serif" font-size="13" lengthAdjust="spacing" textLength="7" x="454.7617" y="548.791">1</text></g><!--link HistoryView to HistoryTemplate--><g id="link_HistoryView_HistoryTemplate"><path codeLine="99" d="M344,559.2694 C344,534.9294 344,514.7794 344,489.7594 " fill="none" id="HistoryView-to-HistoryTemplate" style="stroke:#D66D55;stroke-width:3.0;"/><polygon fill="#D66D55" points="344,483.7594,340,492.7594,344,488.7594,348,492.7594,344,483.7594" style="stroke:#D66D55;stroke-width:3.0;"/><text fill="#000000" font-family="sans-serif" font-size="13" lengthAdjust="spacing" textLength="149" x="194" y="518.0145">"updates UI" [cite: 46, 51]</text><text fill="#000000" font-family="sans-serif" font-size="13" lengthAdjust="spacing" textLength="7" x="332.7461" y="548.9087">1</text><text fill="#000000" font-family="sans-serif" font-size="13" lengthAdjust="spacing" textLength="7" x="333.1242" y="505.5284">1</text></g><!--link HistoryView to TransactionDAO--><g id="link_HistoryView_TransactionDAO"><path codeLine="100" d="M464.25,766.6994 C464.25,791.9994 464.25,812.6394 464.25,836.4594 " fill="none" id="HistoryView-to-TransactionDAO" style="stroke:#D66D55;stroke-width:3.0;"/><polygon fill="#D66D55" points="464.25,842.4594,468.25,833.4594,464.25,837.4594,460.25,833.4594,464.25,842.4594" style="stroke:#D66D55;stroke-width:3.0;"/><text fill="#000000" font-family="sans-serif" font-size="13" lengthAdjust="spacing" textLength="255" x="208.25" y="801.0745">"CRUD &amp; Filter operations" [cite: 14, 16, 46]</text><text fill="#000000" font-family="sans-serif" font-size="13" lengthAdjust="spacing" textLength="7" x="461.6379" y="788.3977">1</text><text fill="#000000" font-family="sans-serif" font-size="13" lengthAdjust="spacing" textLength="7" x="442.6434" y="831.8412">1</text></g><!--link HistoryView to CycleDAO--><g id="link_HistoryView_CycleDAO"><path codeLine="101" d="M250,766.6994 C250,801.8794 250,833.6294 250,862.8194 " fill="none" id="HistoryView-to-CycleDAO" style="stroke:#D66D55;stroke-width:3.0;"/><polygon fill="#D66D55" points="250,868.8194,254,859.8194,250,863.8194,246,859.8194,250,868.8194" style="stroke:#D66D55;stroke-width:3.0;"/><text fill="#000000" font-family="sans-serif" font-size="13" lengthAdjust="spacing" textLength="148" x="101" y="832.2545">triggers limit recalculation</text><text fill="#000000" font-family="sans-serif" font-size="13" lengthAdjust="spacing" textLength="7" x="231.6539" y="788.3977">1</text><text fill="#000000" font-family="sans-serif" font-size="13" lengthAdjust="spacing" textLength="7" x="254.7578" y="858.4067">1</text></g><!--SRC=[dLPjRo8t4FxEhnZjITLUcqIbHqWQdP08ItH8GD80wOUgEfdTWLZnsYlR7CUrTx-zutq1xqBQKr4Ki-jdFEDddfc12Q6s7rF-cSjroweCh8AbibQba72DiULAjimBbndJB0N19TfTXg2qVLRUXdbcYThI8R1Ymg2tezL69h7I4ZMqBxsDZCKlR8stjAnpq409fU5DExgChZh7m3ibRGcvopyU91RCc5kb4zIldP93-bghROc8kjteqWyetvm_y_X5eZ7mpjiQE6CNm8n_GVZbvoFNpKkK4K8Jw5sYZB1bkHK84MThX-h0ENpWnYgzWmcJTEyKfOLmCOCtr_03kFNNjwrMIGe4a_jeE0wgu-2lLWiALn0novRCu0SK6P7__lt2Si7jhjSZ5D3d7ABRZzF-P0WtCBFQIM3_-cduE1lTJsc7IrkyFi-Nds2DT0Kf2t64RvtnRsDkiV97iA-7AEQQISDoRDI_foZelnT1iYJxUgHrRviiOHQzKq9B5jwp2-2Juac9Jr1W7S-JuXODu8eBY_fsDz0Kk-OiZCdFsl5UiN46nZ9jAJeiWiGpG9bup-x8CMNhc-Vlsu6clX3UXWbVWtjq3NQnmFz555Kh4_56C9S9BdPZdd8RnkwyqJ43fpD4NeVIrZLIqLS-ifHaxbAm4efLBolgfYp5ffWiJv5uJBEIipazLsP-SFNR668lznHAtFPhFXjv9EIWTE-mz7qVGUs-0FJNK6FG3iXbBryRvN83mSQW2SXedvFlWv_mSN51HZy6DQh98iqBd8o-UWNzD1h-JlLyVRtinE_yUYxRmXF7BUN9BLwMBAQPA8HPukRbcmfGZ-gc4QQVaMA_kdKzBvI0f7GGDXAXv33XjbQfX- -ZqqL8le_gzNki-bacTdTv1P-gMzSo7fbSEphojN709oQumpoCfc76vS79KYc1JEQ2yPCo7quUnltva1BJZQ_m-gf835cXNh4OOLJHJQdPlztdXrJwhBP36Z0wJCtwb40hq9W8fftmTAqsSalEgg- -5Wu4kcxZEC0yiTg9fWGLxMyKvqeSfMuIRsZkoqP5HrfbDDaTQ4PCoQhhv1G_qApCjU-TI-7OtSpIxfWjKJYXuMTx05H2IhYXk7Ur_YYAQ8zQv0cQdDJkb4x_OneuQA4m6bahhbEs7reDr5Gzeja8QoOq_8cD9aOgorUxHJwDPfiu9jHHZZmH_7rnSPIi6qgNHfBU5pIzdjDNgmdPDmjQ_NgdPa62MQzHcq9q9MK1_17J-Bg1TkSCEjq_MxwHtwwEOmcAoMfWCTgVqkcUmMNxzLFcpIOI31uN4VqiAKeH5BL2TXnOk_llmGqENUTmJU7cbpVLwDG0Mly0]--></g></svg>