<?xml version="1.0" encoding="us-ascii" standalone="no"?><svg xmlns="http://www.w3.org/2000/svg" xmlns:xlink="http://www.w3.org/1999/xlink" contentStyleType="text/css" height="395px" preserveAspectRatio="none" style="width:459px;height:395px;background:#FFFFFF;" version="1.1" viewBox="0 0 459 395" width="459px" zoomAndPan="magnify"><defs/><g><text fill="#000000" font-family="sans-serif" font-size="14" font-weight="bold" lengthAdjust="spacing" textLength="244" x="100.5" y="24.5332">Masroofy - System Overview (MVT)</text><!--entity Budget & Expense Component--><g id="elem_Budget &amp; Expense Component"><path d="M136.5,145.6094 L359.5,145.6094 A7.5,7.5 0 0 1 364.5,150.6094 L371.5,169.2188 L383.5,169.2188 A5,5 0 0 1 388.5,174.2188 L388.5,181.2188 A5,5 0 0 1 383.5,186.2188 L136.5,186.2188 A5,5 0 0 1 131.5,181.2188 L131.5,150.6094 A5,5 0 0 1 136.5,145.6094 " fill="#1D5D74" style="stroke:#181818;stroke-width:0.5;"/><line style="stroke:#181818;stroke-width:0.5;" x1="131.5" x2="371.5" y1="169.2188" y2="169.2188"/><text fill="#FFFFFF" font-family="sans-serif" font-size="14" font-weight="bold" lengthAdjust="spacing" textLength="215" x="141.5" y="163.1426">Budget &amp; Expense Component</text></g><!--entity Dashboard & Stats Component--><g id="elem_Dashboard &amp; Stats Component"><path d="M11,246.6094 L233,246.6094 A7.5,7.5 0 0 1 238,251.6094 L245,270.2188 L257,270.2188 A5,5 0 0 1 262,275.2188 L262,282.2188 A5,5 0 0 1 257,287.2188 L11,287.2188 A5,5 0 0 1 6,282.2188 L6,251.6094 A5,5 0 0 1 11,246.6094 " fill="#6C7E87" style="stroke:#181818;stroke-width:0.5;"/><line style="stroke:#181818;stroke-width:0.5;" x1="6" x2="245" y1="270.2188" y2="270.2188"/><text fill="#FFFFFF" font-family="sans-serif" font-size="14" font-weight="bold" lengthAdjust="spacing" textLength="214" x="16" y="264.1426">Dashboard &amp; Stats Component</text></g><!--entity Notification & History Component--><g id="elem_Notification &amp; History Component"><path d="M183,347.6094 L423,347.6094 A7.5,7.5 0 0 1 428,352.6094 L435,371.2188 L447,371.2188 A5,5 0 0 1 452,376.2188 L452,383.2188 A5,5 0 0 1 447,388.2188 L183,388.2188 A5,5 0 0 1 178,383.2188 L178,352.6094 A5,5 0 0 1 183,347.6094 " fill="#88B4C3" style="stroke:#181818;stroke-width:0.5;"/><line style="stroke:#181818;stroke-width:0.5;" x1="178" x2="435" y1="371.2188" y2="371.2188"/><text fill="#FFFFFF" font-family="sans-serif" font-size="14" font-weight="bold" lengthAdjust="spacing" textLength="232" x="188" y="365.1426">Notification &amp; History Component</text></g><!--entity User Management Component (Diagram 4)--><g id="elem_User Management Component (Diagram 4)"><path d="M96,44.6094 L400,44.6094 A7.5,7.5 0 0 1 405,49.6094 L412,68.2188 L424,68.2188 A5,5 0 0 1 429,73.2188 L429,80.2188 A5,5 0 0 1 424,85.2188 L96,85.2188 A5,5 0 0 1 91,80.2188 L91,49.6094 A5,5 0 0 1 96,44.6094 " fill="#B36B6B" style="stroke:#181818;stroke-width:0.5;"/><line style="stroke:#181818;stroke-width:0.5;" x1="91" x2="412" y1="68.2188" y2="68.2188"/><text fill="#FFFFFF" font-family="sans-serif" font-size="14" font-weight="bold" lengthAdjust="spacing" textLength="296" x="101" y="62.1426">User Management Component (Diagram 4)</text></g><!--link Budget & Expense Component to Dashboard & Stats Component--><g id="link_Budget &amp; Expense Component_Dashboard &amp; Stats Component"><path d="M196.75,187.0394 C196.75,204.4894 196.75,223.2094 196.75,240.5594 " fill="none" id="Budget &amp; Expense Component-to-Dashboard &amp; Stats Component" style="stroke:#D66D55;stroke-width:3.0;stroke-dasharray:7.0,7.0;"/><polygon fill="#D66D55" points="196.75,246.5594,200.75,237.5594,196.75,241.5594,192.75,237.5594,196.75,246.5594" style="stroke:#D66D55;stroke-width:3.0;"/><text fill="#000000" font-family="sans-serif" font-size="13" lengthAdjust="spacing" textLength="117" x="78.75" y="197.2945">shares BudgetCycle</text><text fill="#000000" font-family="sans-serif" font-size="13" lengthAdjust="spacing" textLength="70" x="102.25" y="213.6461">DailyRecord</text></g><!--link Budget & Expense Component to Notification & History Component--><g id="link_Budget &amp; Expense Component_Notification &amp; History Component"><path d="M325.25,186.9694 C325.25,225.7794 325.25,302.6394 325.25,341.3694 " fill="none" id="Budget &amp; Expense Component-to-Notification &amp; History Component" style="stroke:#D66D55;stroke-width:3.0;stroke-dasharray:7.0,7.0;"/><polygon fill="#D66D55" points="325.25,347.3694,329.25,338.3694,325.25,342.3694,321.25,338.3694,325.25,347.3694" style="stroke:#D66D55;stroke-width:3.0;"/><text fill="#000000" font-family="sans-serif" font-size="13" lengthAdjust="spacing" textLength="79" x="335.75" y="247.6645">triggers alerts</text><text fill="#000000" font-family="sans-serif" font-size="13" lengthAdjust="spacing" textLength="98" x="326.25" y="264.0161">via ExpenseView</text></g><!--link Dashboard & Stats Component to Notification & History Component--><g id="link_Dashboard &amp; Stats Component_Notification &amp; History Component"><path d="M220,288.0394 C220,305.4894 220,324.2094 220,341.5594 " fill="none" id="Dashboard &amp; Stats Component-to-Notification &amp; History Component" style="stroke:#D66D55;stroke-width:3.0;stroke-dasharray:7.0,7.0;"/><polygon fill="#D66D55" points="220,347.5594,224,338.5594,220,342.5594,216,338.5594,220,347.5594" style="stroke:#D66D55;stroke-width:3.0;"/><text fill="#000000" font-family="sans-serif" font-size="13" lengthAdjust="spacing" textLength="110" x="221" y="298.2945">shares Transaction</text><text fill="#000000" font-family="sans-serif" font-size="13" lengthAdjust="spacing" textLength="52" x="250" y="314.6461">Category</text></g><!--link User Management Component (Diagram 4) to Budget & Expense Component--><g id="link_User Management Component (Diagram 4)_Budget &amp; Expense Component"><path d="M260,86.0394 C260,103.4894 260,122.2094 260,139.5594 " fill="none" id="User Management Component (Diagram 4)-to-Budget &amp; Expense Component" style="stroke:#D66D55;stroke-width:3.0;stroke-dasharray:7.0,7.0;"/><polygon fill="#D66D55" points="260,145.5594,264,136.5594,260,140.5594,256,136.5594,260,145.5594" style="stroke:#D66D55;stroke-width:3.0;"/><text fill="#000000" font-family="sans-serif" font-size="13" lengthAdjust="spacing" textLength="114" x="145" y="96.2945">user creates cycles</text><text fill="#000000" font-family="sans-serif" font-size="13" lengthAdjust="spacing" textLength="81" x="161.5" y="112.6461">and expenses</text></g><!--link User Management Component (Diagram 4) to Dashboard & Stats Component--><g id="link_User Management Component (Diagram 4)_Dashboard &amp; Stats Component"><path d="M111.25,85.9694 C111.25,124.7794 111.25,201.6394 111.25,240.3694 " fill="none" id="User Management Component (Diagram 4)-to-Dashboard &amp; Stats Component" style="stroke:#D66D55;stroke-width:3.0;stroke-dasharray:7.0,7.0;"/><polygon fill="#D66D55" points="111.25,246.3694,115.25,237.3694,111.25,241.3694,107.25,237.3694,111.25,246.3694" style="stroke:#D66D55;stroke-width:3.0;"/><text fill="#000000" font-family="sans-serif" font-size="13" lengthAdjust="spacing" textLength="87" x="23.25" y="162.6645">views analytics</text></g><!--link User Management Component (Diagram 4) to Notification & History Component--><g id="link_User Management Component (Diagram 4)_Notification &amp; History Component"><path d="M408.75,85.9394 C408.75,141.4194 408.75,286.3394 408.75,341.5394 " fill="none" id="User Management Component (Diagram 4)-to-Notification &amp; History Component" style="stroke:#D66D55;stroke-width:3.0;stroke-dasharray:7.0,7.0;"/><polygon fill="#D66D55" points="408.75,347.5394,412.75,338.5394,408.75,342.5394,404.75,338.5394,408.75,347.5394" style="stroke:#D66D55;stroke-width:3.0;"/><text fill="#000000" font-family="sans-serif" font-size="13" lengthAdjust="spacing" textLength="83" x="324.75" y="213.2345">receives alerts</text></g><!--SRC=[bLDDRzf04BtxLumSgOL3er0-rKEbWXkr1rgfq5n83kFrnAmmksXcWJfL_tlNngGk4H_nnRBslJVllLdBGfiLCYv1PIZooJdMyThHLsNDH3yHt0Jo3Ccq8PUl22oxkQqTi5sRH5asnD2gCrQe5fZIqB_I4ZIocMMuQaNTgDzv2RornbMGs_AfGKg3Gyi9yJ6LNGPckwqGKQyNTRirH7audMkrC2G2xThHg20N1ihSxszUZ3uCKJaynDKod8-vdMj7Hqsqsa7WjCi8nYXixMCExs2IYwCbVDyGRpHjeJ6-cpQ3e9A6SBXEKdBm1Zx_Mf4HWf5ThgmXuqBOMuBVmPyQ9KAPnnOvyQo9GoTrpbLFzMdGXmFED-lqerRej3MUzaMBivp_HnmCuevg7_1-YhyaOpJ-O-bX_mZGY3IcHGcTfYV7xLxSYtVasV5C3t1z_H5c9n8ym0S8POvC0ZkTKQuokZSHwYp_GVxU9k458yu5BkVutoTDYGKm8tPoRpOQzuftVbj-q4chbq-g4aqPZQ0geFTcX8vI3ms3u2qyjmbCMQabq3XelndCBjf7PUnKHzxIkf1IJDw5W2fAzWMWIO1sS0bVD-xSKelhxviscELEgzUgNzGoaoAzeVq-m-0l]--></g></svg>