<?xml version="1.0" encoding="us-ascii" standalone="no"?><svg xmlns="http://www.w3.org/2000/svg" xmlns:xlink="http://www.w3.org/1999/xlink" contentStyleType="text/css" height="294px" preserveAspectRatio="none" style="width:414px;height:294px;background:#F1E5E8;" version="1.1" viewBox="0 0 414 294" width="414px" zoomAndPan="magnify"><defs/><g><rect fill="#F1E5E8" height="294" style="stroke:none;stroke-width:1.0;" width="414" x="0" y="0"/><text fill="#000000" font-family="sans-serif" font-size="14" font-weight="bold" lengthAdjust="spacing" textLength="244" x="78.125" y="24.5332">Masroofy - System Overview (MVT)</text><!--entity Budget & Expense Component--><g id="elem_Budget &amp; Expense Component"><path d="M100.5,44.6094 L323.5,44.6094 A7.5,7.5 0 0 1 328.5,49.6094 L335.5,68.2188 L347.5,68.2188 A5,5 0 0 1 352.5,73.2188 L352.5,80.2188 A5,5 0 0 1 347.5,85.2188 L100.5,85.2188 A5,5 0 0 1 95.5,80.2188 L95.5,49.6094 A5,5 0 0 1 100.5,44.6094 " fill="#1D5D74" style="stroke:#181818;stroke-width:0.5;"/><line style="stroke:#181818;stroke-width:0.5;" x1="95.5" x2="335.5" y1="68.2188" y2="68.2188"/><text fill="#FFFFFF" font-family="sans-serif" font-size="14" font-weight="bold" lengthAdjust="spacing" textLength="215" x="105.5" y="62.1426">Budget &amp; Expense Component</text></g><!--entity Dashboard & Stats Component--><g id="elem_Dashboard &amp; Stats Component"><path d="M11,145.6094 L233,145.6094 A7.5,7.5 0 0 1 238,150.6094 L245,169.2188 L257,169.2188 A5,5 0 0 1 262,174.2188 L262,181.2188 A5,5 0 0 1 257,186.2188 L11,186.2188 A5,5 0 0 1 6,181.2188 L6,150.6094 A5,5 0 0 1 11,145.6094 " fill="#6C7E87" style="stroke:#181818;stroke-width:0.5;"/><line style="stroke:#181818;stroke-width:0.5;" x1="6" x2="245" y1="169.2188" y2="169.2188"/><text fill="#FFFFFF" font-family="sans-serif" font-size="14" font-weight="bold" lengthAdjust="spacing" textLength="214" x="16" y="163.1426">Dashboard &amp; Stats Component</text></g><!--entity Notification & History Component--><g id="elem_Notification &amp; History Component"><path d="M92,246.6094 L332,246.6094 A7.5,7.5 0 0 1 337,251.6094 L344,270.2188 L356,270.2188 A5,5 0 0 1 361,275.2188 L361,282.2188 A5,5 0 0 1 356,287.2188 L92,287.2188 A5,5 0 0 1 87,282.2188 L87,251.6094 A5,5 0 0 1 92,246.6094 " fill="#88B4C3" style="stroke:#181818;stroke-width:0.5;"/><line style="stroke:#181818;stroke-width:0.5;" x1="87" x2="344" y1="270.2188" y2="270.2188"/><text fill="#FFFFFF" font-family="sans-serif" font-size="14" font-weight="bold" lengthAdjust="spacing" textLength="232" x="97" y="264.1426">Notification &amp; History Component</text></g><!--link Budget & Expense Component to Dashboard & Stats Component--><g id="link_Budget &amp; Expense Component_Dashboard &amp; Stats Component"><path d="M178.75,86.0394 C178.75,103.4894 178.75,122.2094 178.75,139.5594 " fill="none" id="Budget &amp; Expense Component-to-Dashboard &amp; Stats Component" style="stroke:#D66D55;stroke-width:3.0;stroke-dasharray:7.0,7.0;"/><polygon fill="#D66D55" points="178.75,145.5594,182.75,136.5594,178.75,140.5594,174.75,136.5594,178.75,145.5594" style="stroke:#D66D55;stroke-width:3.0;"/><text fill="#000000" font-family="sans-serif" font-size="13" lengthAdjust="spacing" textLength="117" x="60.75" y="96.2945">shares BudgetCycle</text><text fill="#000000" font-family="sans-serif" font-size="13" lengthAdjust="spacing" textLength="70" x="84.25" y="112.6461">DailyRecord</text></g><!--link Budget & Expense Component to Notification & History Component--><g id="link_Budget &amp; Expense Component_Notification &amp; History Component"><path d="M307.25,85.9694 C307.25,124.7794 307.25,201.6394 307.25,240.3694 " fill="none" id="Budget &amp; Expense Component-to-Notification &amp; History Component" style="stroke:#D66D55;stroke-width:3.0;stroke-dasharray:7.0,7.0;"/><polygon fill="#D66D55" points="307.25,246.3694,311.25,237.3694,307.25,241.3694,303.25,237.3694,307.25,246.3694" style="stroke:#D66D55;stroke-width:3.0;"/><text fill="#000000" font-family="sans-serif" font-size="13" lengthAdjust="spacing" textLength="79" x="317.75" y="146.6645">triggers alerts</text><text fill="#000000" font-family="sans-serif" font-size="13" lengthAdjust="spacing" textLength="98" x="308.25" y="163.0161">via ExpenseView</text></g><!--link Dashboard & Stats Component to Notification & History Component--><g id="link_Dashboard &amp; Stats Component_Notification &amp; History Component"><path d="M174.5,187.0394 C174.5,204.4894 174.5,223.2094 174.5,240.5594 " fill="none" id="Dashboard &amp; Stats Component-to-Notification &amp; History Component" style="stroke:#D66D55;stroke-width:3.0;stroke-dasharray:7.0,7.0;"/><polygon fill="#D66D55" points="174.5,246.5594,178.5,237.5594,174.5,241.5594,170.5,237.5594,174.5,246.5594" style="stroke:#D66D55;stroke-width:3.0;"/><text fill="#000000" font-family="sans-serif" font-size="13" lengthAdjust="spacing" textLength="110" x="175.5" y="197.2945">shares Transaction</text><text fill="#000000" font-family="sans-serif" font-size="13" lengthAdjust="spacing" textLength="52" x="204.5" y="213.6461">Category</text></g><!--SRC=[ZPFDJkD048JlVegMaLRBOH4Xv4SSa3Ps47i0f4t4XN2OZ1jx56VQwkuaU5UyEuuJa4aKO2u-z5VLLIEFp9ml39ivsDo8_5PbDrqe_h7aH-uVmcaWxqZkF6fP811hHeq1qy8dbjWZGwkfA8oTcHG7rIUjeOXoOZXgnPsuTxuFNf7NBN9LdmPI1nmG9yY7N3OTc6cr9U9kD-vq6aGz76VEpZoAGBinYjRYTO2wzzdftkhT4di9zudMi3FixnerIdvz3wlCAHvCsMe7WJhD4MwCCD5J2RzWL8hY7EwMo4k7A_XvSpy-3eAjDOI3HPAYmWyOFXVe1I6YUK4UlORm5Wd-1oyDIMmacvBXf5ADrAWqDKTTsyD-3tOqjwJkoLcZZdmbktQYnEK7ORy_FRVjZUxXSAn7E3cvX8TFGZp21OII6KQ1ZKzKsXmdFZOkB_zYzMycuJTMV9MvtbCzaJH55Z0viih4BvrvSxolBhnQz6dKxs_QDXgpyMBi6ftuo2Yc5He6hm00]--></g></svg>